<svg data-v-0dd9719b="" version="1.0" xmlns="http://www.w3.org/2000/svg" xmlns:xlink="http://www.w3.org/1999/xlink" width="100%" height="100%" viewBox="0 0 340.000000 250.000000" preserveAspectRatio="xMidYMid meet" color-interpolation-filters="sRGB" style="margin: auto;"> <rect data-v-0dd9719b="" x="0" y="0" width="100%" height="100%" fill="#ffffff" fill-opacity="1" class="background"></rect> <rect data-v-0dd9719b="" x="0" y="0" width="100%" height="100%" fill="url(#watermark)" fill-opacity="1" class="watermarklayer"></rect> <g data-v-0dd9719b="" fill="#a8c196" class="icon-text-wrapper icon-svg-group iconsvg" transform="translate(48.965003967285156,94.94560241699219)"><g class="iconsvg-imagesvg" transform="translate(0,0)"><g><rect fill="#a8c196" fill-opacity="0" stroke-width="2" x="0" y="0" width="60" height="60.1087969224296" class="image-rect"></rect> <svg filter="url(#colors1503515088)" x="0" y="0" width="60" height="60.1087969224296" filtersec="colorsf9658174541" class="image-svg-svg primary" style="overflow: visible;"><svg xmlns="http://www.w3.org/2000/svg" viewBox="-0.6000000000000001 -0.6000000000000001 59 59.1"><path d="M39.9 45.6L29 56.5 1.4 29 29 1.4l22.1 22.1L29 45.6 12.3 29M34.4 6.8L12.3 29 29 45.6m-16.7-5.7L23.2 29l16.6 16.6L56.4 29 29 1.4" fill="none" stroke="#282828" stroke-width="2" stroke-miterlimit="10"></path></svg></svg> <defs><filter id="colors1503515088"><feColorMatrix type="matrix" values="0 0 0 0 0.3359375  0 0 0 0 0.4296875  0 0 0 0 0.33984375  0 0 0 1 0" class="icon-fecolormatrix"></feColorMatrix></filter> <filter id="colorsf9658174541"><feColorMatrix type="matrix" values="0 0 0 0 0.99609375  0 0 0 0 0.99609375  0 0 0 0 0.99609375  0 0 0 1 0" class="icon-fecolormatrix"></feColorMatrix></filter> <filter id="colorsb9004963896"><feColorMatrix type="matrix" values="0 0 0 0 0  0 0 0 0 0  0 0 0 0 0  0 0 0 1 0" class="icon-fecolormatrix"></feColorMatrix></filter></defs></g></g> <g transform="translate(67,2.103147506713867)"><g data-gra="path-name" fill-rule="" class="tp-name iconsvg-namesvg" transform="translate(0,0)"><g transform="scale(1)"><g><path d="M20.57-35.16L24.61-36.56Q26.19-33.93 27.25-30.94L27.25-30.94 23.55-29.88Q22.15-33.05 20.57-35.16L20.57-35.16ZM42.19-29.71L42.19-29.71 42.19-25.66Q39.9-26.02 34.8-26.02L34.8-26.02 11.25-26.02 11.25-12.66Q11.78-3.16 5.8 4.39L5.8 4.39Q4.92 4.04 4.04 3.69L4.04 3.69Q2.64 2.99 1.41 2.81L1.41 2.81Q8.09-4.75 7.73-12.83L7.73-12.83 7.73-24.61Q7.73-26.37 7.38-28.83L7.38-28.83Q7.38-29.53 7.38-29.71L7.38-29.71Q10.2-29.36 13.18-29.36L13.18-29.36 34.28-29.36Q39.73-29.36 42.19-29.71ZM56.6-35.51L56.6-35.51Q61.52-35.51 61.52-34.98L61.52-34.98Q61.52-34.8 61.35-34.28L61.35-34.28Q60.47-32.7 60.64-31.46L60.64-31.46Q60.64-13.89 59.24-8.09L59.24-8.09Q58.01-2.81 52.03 3.16L52.03 3.16Q50.27 1.23 47.64 1.05L47.64 1.05Q53.44-3.16 55.2-7.73L55.2-7.73Q56.95-12.13 56.95-21.97L56.95-21.97 56.95-30.59Q56.95-34.1 56.6-35.51ZM79.45-35.51L79.45-35.51Q84.38-35.16 84.55-34.98L84.55-34.98Q84.55-34.98 84.38-34.63L84.38-34.63Q83.67-33.22 83.67-31.11L83.67-31.11 83.67-4.22Q83.67 0.53 84.02 3.52L84.02 3.52 79.63 3.52Q79.8 2.11 79.98 0L79.98 0Q79.98-1.93 79.98-4.22L79.98-4.22 79.98-30.76Q79.98-33.4 79.45-35.51ZM67.32-34.45L67.32-34.45Q71.89-34.1 72.07-33.93L72.07-33.93Q72.07-33.75 71.89-33.22L71.89-33.22Q71.37-31.99 71.37-31.11L71.37-31.11 71.37-4.92Q71.37 0 71.72 2.11L71.72 2.11 67.32 2.11Q68.03-0.18 67.85-4.92L67.85-4.92 67.85-29.88Q67.85-32.17 67.32-34.45ZM50.98-26.19L50.98-26.19 55.02-25.66Q54.67-24.08 54.49-22.68L54.49-22.68Q53.61-15.82 52.73-10.72L52.73-10.72Q50.45-11.43 48.52-11.25L48.52-11.25Q50.98-18.63 50.98-26.19ZM61.35-24.26L64.51-24.96Q65.74-19.16 66.62-12.83L66.62-12.83 63.11-12.13Q63.11-18.11 61.35-24.26L61.35-24.26ZM72.77-24.26L76.11-24.96Q78.22-16.7 78.57-12.66L78.57-12.66 74.88-11.78Q74.53-18.46 72.77-24.26L72.77-24.26ZM110.92-35.51L115.66-36.39Q116.19-34.28 117.07-30.76L117.07-30.76 124.98-30.76Q130.43-30.76 131.48-30.94L131.48-30.94 131.48-27.07Q131.48-27.07 131.31-27.07L131.31-27.07Q130.08-27.25 124.98-27.25L124.98-27.25 100.9-27.25 100.9-13.89Q100.37-4.92 95.27 2.81L95.27 2.81Q94.04 1.76 91.23 1.05L91.23 1.05Q97.21-5.63 97.38-16.17L97.38-16.17 97.38-25.84Q97.21-29.88 97.21-30.94L97.21-30.94Q99.67-30.76 102.48-30.76L102.48-30.76 113.2-30.76Q111.8-34.1 111.09-35.33L111.09-35.33Q110.92-35.51 110.92-35.51L110.92-35.51ZM111.62-23.38L115.49-24.08Q117.77-16 118.65-9.84L118.65-9.84 114.43-9.14Q113.55-17.58 111.62-23.38L111.62-23.38ZM124.8-23.38L124.8-23.38Q125.86-23.03 127.27-22.5L127.27-22.5Q130.25-21.62 129.9-21.27L129.9-21.27Q129.9-21.09 129.38-20.57L129.38-20.57Q128.14-19.34 127.09-17.05L127.09-17.05Q125.86-13.89 121.11-3.52L121.11-3.52Q121.46-4.22 120.59-2.29L120.59-2.29 126.56-2.29Q130.96-2.29 131.48-2.46L131.48-2.46 131.48 1.05Q130.78 0.88 126.74 0.88L126.74 0.88 107.4 0.88Q101.43 0.88 100.55 1.05L100.55 1.05 100.55-2.46Q101.43-2.29 106.7-2.29L106.7-2.29 116.72-2.29Q123.22-15.82 124.8-23.38ZM102.66-19.86L106.17-20.92Q108.11-17.93 111.62-7.21L111.62-7.21 107.58-5.98Q106-13.36 102.66-19.86L102.66-19.86ZM145.37-27.6L145.37-27.6Q149.94-27.77 149.77-27.07L149.77-27.07Q149.77-26.89 149.59-26.72L149.59-26.72Q148.54-25.66 148.71-23.73L148.71-23.73Q149.06-10.37 147.48-5.98L147.48-5.98Q146.25-1.76 139.75 3.34L139.75 3.34Q138.69 1.93 136.23 0.53L136.23 0.53Q143.26-2.81 144.32-7.21L144.32-7.21Q145.2-9.67 145.37-13.89L145.37-13.89Q145.55-17.4 145.37-27.6ZM161.72-22.5L161.72-22.5Q166.46-21.97 166.29-21.27L166.29-21.27Q165.59-20.39 164.18-17.05L164.18-17.05Q162.25-12.3 160.49-8.44L160.49-8.44 166.46-9.14Q165.76-12.13 164.71-14.94L164.71-14.94 168.05-15.64Q170.16-9.84 171.21-4.57L171.21-4.57 167.17-4.04Q167.17-5.45 166.99-6.86L166.99-6.86Q159.79-5.45 157.5-4.92L157.5-4.92 156.62-7.91Q159.08-8.09 161.72-22.5ZM147.83-5.1L150.64-7.03Q155.04-3.34 157.32 0L157.32 0 153.81 2.11Q151.17-1.93 147.83-5.1L147.83-5.1ZM154.86-27.25L154.86-14.59Q154.86-10.55 155.21-8.09L155.21-8.09 151.35-8.09Q151.35-7.21 151.52-11.07L151.52-11.07Q151.52-12.83 151.52-15.29L151.52-15.29 151.52-30.06 142.21-30.06 142.21-14.59Q142.03-10.02 142.56-7.21L142.56-7.21 138.69-7.21Q138.69-6.33 138.87-10.55L138.87-10.55Q138.87-12.3 138.87-14.24L138.87-14.24 138.87-25.66Q138.87-31.11 138.52-33.4L138.52-33.4Q140.8-33.05 146.78-33.05L146.78-33.05Q151.7-33.05 155.21-33.57L155.21-33.57Q154.86-31.11 154.86-27.25L154.86-27.25ZM161.02-36.39L161.02-36.39Q165.59-36.04 166.29-35.33L166.29-35.33Q166.29-35.33 166.11-34.98L166.11-34.98Q164.36-33.22 162.6-29L162.6-29 171.56-29Q174.38-29 176.48-29.53L176.48-29.53Q176.31-25.84 176.13-15.82L176.13-15.82Q175.78-4.04 175.61-1.05L175.61-1.05Q175.96 4.04 166.99 4.22L166.99 4.22Q166.99 1.93 164.88 0L164.88 0Q172.79 1.76 172.09-3.87L172.09-3.87Q172.09-5.63 172.27-8.26L172.27-8.26Q172.44-11.78 172.62-25.66L172.62-25.66 161.54-25.66Q160.66-24.08 161.02-24.61L161.02-24.61Q158.73-20.04 158.03-19.16L158.03-19.16Q157.5-20.57 155.04-21.62L155.04-21.62Q160.31-28.83 161.02-36.39Z" transform="translate(-1.409999966621399, 36.560001373291016)"></path></g> <!----> <!----> <!----> <!----> <!----> <!----> <!----></g></g> <g data-gra="path-slogan" fill-rule="" class="tp-slogan iconsvg-slogansvg" fill="#566e57" transform="translate(5,46.95000076293945)"><rect x="0" height="1" y="3.9750003814697266" width="11.469436645507812"></rect> <rect height="1" y="3.9750003814697266" width="11.469436645507812" x="153.60055541992188"></rect> <g transform="translate(14.469436645507812,0)"><g transform="scale(1)"><path d="M7.31-3.61L4.69-3.61L4.69-4.59L8.44-4.59L8.44 0L7.69 0L7.41-1.08Q6.42 0.09 4.59 0.14L4.59 0.14Q2.86 0.14 1.92-0.75L1.92-0.75Q0.52-2.06 0.56-4.36L0.56-4.36Q0.89-8.63 4.64-8.81L4.64-8.81Q7.83-8.63 8.30-6L8.30-6L7.17-6Q6.70-7.78 4.59-7.83L4.59-7.83Q1.92-7.64 1.78-4.31L1.78-4.31Q1.78-0.75 4.64-0.75L4.64-0.75Q5.67-0.75 6.42-1.31L6.42-1.31Q7.36-2.06 7.31-3.61L7.31-3.61ZM15.89-3.19L15.89-8.58L17.06-8.58L17.06-3.05Q16.92 0.05 13.55 0.14L13.55 0.14Q10.41 0.05 10.27-2.86L10.27-2.86L10.27-8.58L11.44-8.58L11.44-3.19Q11.48-0.84 13.59-0.80L13.59-0.80Q15.89-0.84 15.89-3.19L15.89-3.19ZM24.52 0L23.67-2.48L20.20-2.48L19.31 0L18.14 0L21.38-8.58L22.69-8.58L25.78 0L24.52 0ZM21.94-7.31L20.58-3.52L23.25-3.52L21.98-7.31L21.94-7.31ZM28.22-8.58L32.53-1.64L32.53-8.58L33.66-8.58L33.66 0L32.34 0L27.98-6.94L27.94-6.94L27.94 0L26.81 0L26.81-8.58L28.22-8.58ZM41.86-3.61L39.23-3.61L39.23-4.59L42.98-4.59L42.98 0L42.23 0L41.95-1.08Q40.97 0.09 39.14 0.14L39.14 0.14Q37.41 0.14 36.47-0.75L36.47-0.75Q35.06-2.06 35.11-4.36L35.11-4.36Q35.44-8.63 39.19-8.81L39.19-8.81Q42.38-8.63 42.84-6L42.84-6L41.72-6Q41.25-7.78 39.14-7.83L39.14-7.83Q36.47-7.64 36.33-4.31L36.33-4.31Q36.33-0.75 39.19-0.75L39.19-0.75Q40.22-0.75 40.97-1.31L40.97-1.31Q41.91-2.06 41.86-3.61L41.86-3.61ZM45.61-1.03L50.91-1.03L50.91 0L44.16 0L44.16-0.94L49.41-7.59L44.53-7.59L44.53-8.58L50.91-8.58L50.91-7.59L45.61-1.03ZM53.20-5.06L57.70-5.06L57.70-8.58L58.88-8.58L58.88 0L57.70 0L57.70-3.98L53.20-3.98L53.20 0L52.03 0L52.03-8.58L53.20-8.58L53.20-5.06ZM67.45-4.27L67.45-4.27Q67.27-7.64 64.45-7.83L64.45-7.83Q61.59-7.69 61.45-4.27L61.45-4.27Q61.59-0.94 64.45-0.80L64.45-0.80Q67.27-0.98 67.45-4.27ZM68.63-4.27L68.63-4.27Q68.34 0 64.45 0.14L64.45 0.14Q60.52 0 60.23-4.27L60.23-4.27Q60.47-8.72 64.45-8.81L64.45-8.81Q68.34-8.67 68.63-4.27ZM75.66-3.19L75.66-8.58L76.83-8.58L76.83-3.05Q76.69 0.05 73.31 0.14L73.31 0.14Q70.17 0.05 70.03-2.86L70.03-2.86L70.03-8.58L71.20-8.58L71.20-3.19Q71.25-0.84 73.36-0.80L73.36-0.80Q75.66-0.84 75.66-3.19L75.66-3.19ZM88.88-8.58L85.64-3.47L85.64 0L84.47 0L84.47-3.47L81.23-8.58L82.59-8.58L85.03-4.45L87.52-8.58L88.88-8.58ZM90.09-8.58L91.27-8.58L91.27 0L90.09 0L90.09-8.58ZM94.64-8.58L98.95-1.64L98.95-8.58L100.08-8.58L100.08 0L98.77 0L94.41-6.94L94.36-6.94L94.36 0L93.23 0L93.23-8.58L94.64-8.58ZM108.28-3.61L105.66-3.61L105.66-4.59L109.41-4.59L109.41 0L108.66 0L108.38-1.08Q107.39 0.09 105.56 0.14L105.56 0.14Q103.83 0.14 102.89-0.75L102.89-0.75Q101.48-2.06 101.53-4.36L101.53-4.36Q101.86-8.63 105.61-8.81L105.61-8.81Q108.80-8.63 109.27-6L109.27-6L108.14-6Q107.67-7.78 105.56-7.83L105.56-7.83Q102.89-7.64 102.75-4.31L102.75-4.31Q102.75-0.75 105.61-0.75L105.61-0.75Q106.64-0.75 107.39-1.31L107.39-1.31Q108.33-2.06 108.28-3.61L108.28-3.61ZM117.61-3.61L114.98-3.61L114.98-4.59L118.73-4.59L118.73 0L117.98 0L117.70-1.08Q116.72 0.09 114.89 0.14L114.89 0.14Q113.16 0.14 112.22-0.75L112.22-0.75Q110.81-2.06 110.86-4.36L110.86-4.36Q111.19-8.63 114.94-8.81L114.94-8.81Q118.13-8.63 118.59-6L118.59-6L117.47-6Q117-7.78 114.89-7.83L114.89-7.83Q112.22-7.64 112.08-4.31L112.08-4.31Q112.08-0.75 114.94-0.75L114.94-0.75Q115.97-0.75 116.72-1.31L116.72-1.31Q117.66-2.06 117.61-3.61L117.61-3.61ZM127.31-4.27L127.31-4.27Q127.13-7.64 124.31-7.83L124.31-7.83Q121.45-7.69 121.31-4.27L121.31-4.27Q121.45-0.94 124.31-0.80L124.31-0.80Q127.13-0.98 127.31-4.27ZM128.48-4.27L128.48-4.27Q128.20 0 124.31 0.14L124.31 0.14Q120.38 0 120.09-4.27L120.09-4.27Q120.33-8.72 124.31-8.81L124.31-8.81Q128.20-8.67 128.48-4.27ZM135.52-3.19L135.52-8.58L136.69-8.58L136.69-3.05Q136.55 0.05 133.17 0.14L133.17 0.14Q130.03 0.05 129.89-2.86L129.89-2.86L129.89-8.58L131.06-8.58L131.06-3.19Q131.11-0.84 133.22-0.80L133.22-0.80Q135.52-0.84 135.52-3.19L135.52-3.19Z" transform="translate(-0.5609879032258065, 8.8125)"></path></g></g></g></g></g><defs v-gra="od"></defs></svg>